<mxfile host="65bd71144e">
    <diagram id="7PHQrMTHrAfAO-10UFJN" name="Page-1">
        <mxGraphModel dx="2241" dy="821" grid="1" gridSize="10" guides="1" tooltips="1" connect="1" arrows="1" fold="1" page="1" pageScale="1" pageWidth="827" pageHeight="1169" background="none" math="0" shadow="0">
            <root>
                <mxCell id="0"/>
                <mxCell id="1" parent="0"/>
                <mxCell id="114" value="" style="rounded=0;whiteSpace=wrap;html=1;fontSize=8;fillColor=none;dashed=1;" parent="1" vertex="1">
                    <mxGeometry x="-320" y="70" width="800" height="570" as="geometry"/>
                </mxCell>
                <mxCell id="131" style="edgeStyle=orthogonalEdgeStyle;rounded=0;orthogonalLoop=1;jettySize=auto;html=1;entryX=0.528;entryY=0.002;entryDx=0;entryDy=0;entryPerimeter=0;startArrow=oval;startFill=1;endArrow=oval;endFill=1;strokeColor=#C73500;exitX=0.375;exitY=0.995;exitDx=0;exitDy=0;exitPerimeter=0;fillColor=#fa6800;" edge="1" parent="1" source="123" target="2">
                    <mxGeometry relative="1" as="geometry"/>
                </mxCell>
                <mxCell id="140" value="12" style="edgeLabel;html=1;align=center;verticalAlign=middle;resizable=0;points=[];fontSize=8;" vertex="1" connectable="0" parent="131">
                    <mxGeometry x="0.9063" y="1" relative="1" as="geometry">
                        <mxPoint as="offset"/>
                    </mxGeometry>
                </mxCell>
                <mxCell id="145" value="MOSI" style="edgeLabel;html=1;align=center;verticalAlign=middle;resizable=0;points=[];fontSize=8;" vertex="1" connectable="0" parent="131">
                    <mxGeometry x="-0.3727" relative="1" as="geometry">
                        <mxPoint as="offset"/>
                    </mxGeometry>
                </mxCell>
                <mxCell id="132" style="edgeStyle=orthogonalEdgeStyle;rounded=0;orthogonalLoop=1;jettySize=auto;html=1;entryX=0.472;entryY=0.002;entryDx=0;entryDy=0;entryPerimeter=0;startArrow=oval;startFill=1;endArrow=oval;endFill=1;strokeColor=#BD7000;exitX=0.5;exitY=1;exitDx=0;exitDy=0;fillColor=#f0a30a;" edge="1" parent="1" source="123" target="2">
                    <mxGeometry relative="1" as="geometry"/>
                </mxCell>
                <mxCell id="141" value="13" style="edgeLabel;html=1;align=center;verticalAlign=middle;resizable=0;points=[];fontSize=8;" vertex="1" connectable="0" parent="132">
                    <mxGeometry x="0.9005" relative="1" as="geometry">
                        <mxPoint x="1" y="-1" as="offset"/>
                    </mxGeometry>
                </mxCell>
                <mxCell id="146" value="MISO" style="edgeLabel;html=1;align=center;verticalAlign=middle;resizable=0;points=[];fontSize=8;" vertex="1" connectable="0" parent="132">
                    <mxGeometry x="-0.3893" relative="1" as="geometry">
                        <mxPoint x="3" as="offset"/>
                    </mxGeometry>
                </mxCell>
                <mxCell id="133" style="edgeStyle=orthogonalEdgeStyle;rounded=0;orthogonalLoop=1;jettySize=auto;html=1;entryX=0.411;entryY=0.004;entryDx=0;entryDy=0;entryPerimeter=0;startArrow=oval;startFill=1;endArrow=oval;endFill=1;strokeColor=#B09500;exitX=0.618;exitY=1.007;exitDx=0;exitDy=0;exitPerimeter=0;fillColor=#e3c800;" edge="1" parent="1" source="123" target="2">
                    <mxGeometry relative="1" as="geometry"/>
                </mxCell>
                <mxCell id="142" value="14" style="edgeLabel;html=1;align=center;verticalAlign=middle;resizable=0;points=[];fontSize=8;" vertex="1" connectable="0" parent="133">
                    <mxGeometry x="0.9125" y="-1" relative="1" as="geometry">
                        <mxPoint x="-2" y="-2" as="offset"/>
                    </mxGeometry>
                </mxCell>
                <mxCell id="147" value="SCK" style="edgeLabel;html=1;align=center;verticalAlign=middle;resizable=0;points=[];fontSize=8;" vertex="1" connectable="0" parent="133">
                    <mxGeometry x="-0.3707" y="1" relative="1" as="geometry">
                        <mxPoint x="-2" as="offset"/>
                    </mxGeometry>
                </mxCell>
                <mxCell id="134" style="edgeStyle=orthogonalEdgeStyle;rounded=0;orthogonalLoop=1;jettySize=auto;html=1;entryX=0.352;entryY=0.001;entryDx=0;entryDy=0;entryPerimeter=0;startArrow=oval;startFill=1;endArrow=oval;endFill=1;strokeColor=#3A5431;exitX=0.75;exitY=1;exitDx=0;exitDy=0;fillColor=#6d8764;" edge="1" parent="1" source="123" target="2">
                    <mxGeometry relative="1" as="geometry"/>
                </mxCell>
                <mxCell id="143" value="15" style="edgeLabel;html=1;align=center;verticalAlign=middle;resizable=0;points=[];fontSize=8;" vertex="1" connectable="0" parent="134">
                    <mxGeometry x="0.9122" y="-1" relative="1" as="geometry">
                        <mxPoint x="-1" y="-1" as="offset"/>
                    </mxGeometry>
                </mxCell>
                <mxCell id="148" value="CS" style="edgeLabel;html=1;align=center;verticalAlign=middle;resizable=0;points=[];fontSize=8;" vertex="1" connectable="0" parent="134">
                    <mxGeometry x="-0.3787" relative="1" as="geometry">
                        <mxPoint x="1" as="offset"/>
                    </mxGeometry>
                </mxCell>
                <mxCell id="138" style="edgeStyle=orthogonalEdgeStyle;rounded=0;orthogonalLoop=1;jettySize=auto;html=1;entryX=0.298;entryY=0.001;entryDx=0;entryDy=0;entryPerimeter=0;startArrow=oval;startFill=1;endArrow=oval;endFill=1;strokeColor=#314354;exitX=0.75;exitY=0;exitDx=0;exitDy=0;fillColor=#647687;" edge="1" parent="1" source="124" target="2">
                    <mxGeometry relative="1" as="geometry"/>
                </mxCell>
                <mxCell id="144" value="16" style="edgeLabel;html=1;align=center;verticalAlign=middle;resizable=0;points=[];fontSize=8;" vertex="1" connectable="0" parent="138">
                    <mxGeometry x="0.891" y="1" relative="1" as="geometry">
                        <mxPoint y="1" as="offset"/>
                    </mxGeometry>
                </mxCell>
                <mxCell id="149" value="CS" style="edgeLabel;html=1;align=center;verticalAlign=middle;resizable=0;points=[];fontSize=8;" vertex="1" connectable="0" parent="138">
                    <mxGeometry x="-0.5611" y="-1" relative="1" as="geometry">
                        <mxPoint x="3" as="offset"/>
                    </mxGeometry>
                </mxCell>
                <mxCell id="128" style="edgeStyle=orthogonalEdgeStyle;rounded=0;orthogonalLoop=1;jettySize=auto;html=1;entryX=0.587;entryY=0.002;entryDx=0;entryDy=0;entryPerimeter=0;startArrow=oval;startFill=1;endArrow=oval;endFill=1;exitX=0.25;exitY=1;exitDx=0;exitDy=0;strokeColor=#FF0000;" edge="1" parent="1" source="123" target="2">
                    <mxGeometry relative="1" as="geometry"/>
                </mxCell>
                <mxCell id="139" value="3.3V" style="edgeLabel;html=1;align=center;verticalAlign=middle;resizable=0;points=[];fontSize=8;" vertex="1" connectable="0" parent="128">
                    <mxGeometry x="0.9061" relative="1" as="geometry">
                        <mxPoint as="offset"/>
                    </mxGeometry>
                </mxCell>
                <mxCell id="126" style="edgeStyle=orthogonalEdgeStyle;rounded=0;orthogonalLoop=1;jettySize=auto;html=1;startArrow=oval;startFill=1;endArrow=oval;endFill=1;exitX=0.124;exitY=1.001;exitDx=0;exitDy=0;exitPerimeter=0;fillColor=#0050ef;strokeColor=#006EAF;" edge="1" parent="1" source="123">
                    <mxGeometry relative="1" as="geometry">
                        <mxPoint x="30" y="260" as="targetPoint"/>
                        <Array as="points">
                            <mxPoint x="-270" y="260"/>
                        </Array>
                    </mxGeometry>
                </mxCell>
                <mxCell id="115" value="Circuito de controle" style="text;html=1;strokeColor=none;fillColor=none;align=center;verticalAlign=middle;whiteSpace=wrap;rounded=0;dashed=1;fontSize=8;rotation=0;" parent="1" vertex="1">
                    <mxGeometry x="30" y="77" width="90" height="20" as="geometry"/>
                </mxCell>
                <mxCell id="39" style="edgeStyle=orthogonalEdgeStyle;rounded=0;orthogonalLoop=1;jettySize=auto;html=1;entryX=-0.001;entryY=0.058;entryDx=0;entryDy=0;entryPerimeter=0;endArrow=oval;endFill=1;startArrow=oval;startFill=1;exitX=0.324;exitY=0.999;exitDx=0;exitDy=0;exitPerimeter=0;fillColor=#008a00;strokeColor=#005700;dashed=1;" parent="1" source="2" target="4" edge="1">
                    <mxGeometry relative="1" as="geometry"/>
                </mxCell>
                <mxCell id="45" value="21" style="edgeLabel;html=1;align=center;verticalAlign=middle;resizable=0;points=[];fontSize=8;" parent="39" vertex="1" connectable="0">
                    <mxGeometry x="-0.8188" y="1" relative="1" as="geometry">
                        <mxPoint x="-3" as="offset"/>
                    </mxGeometry>
                </mxCell>
                <mxCell id="59" value="1" style="edgeLabel;html=1;align=center;verticalAlign=middle;resizable=0;points=[];fontSize=8;" parent="39" vertex="1" connectable="0">
                    <mxGeometry x="0.8931" y="1" relative="1" as="geometry">
                        <mxPoint as="offset"/>
                    </mxGeometry>
                </mxCell>
                <mxCell id="40" style="edgeStyle=orthogonalEdgeStyle;rounded=0;orthogonalLoop=1;jettySize=auto;html=1;entryX=-0.001;entryY=0.189;entryDx=0;entryDy=0;startArrow=oval;startFill=1;endArrow=oval;endFill=1;exitX=0.442;exitY=1.004;exitDx=0;exitDy=0;exitPerimeter=0;fillColor=#008a00;strokeColor=#005700;entryPerimeter=0;" parent="1" source="2" target="4" edge="1">
                    <mxGeometry relative="1" as="geometry">
                        <Array as="points">
                            <mxPoint x="265" y="295"/>
                            <mxPoint x="265" y="245"/>
                            <mxPoint x="350" y="245"/>
                        </Array>
                    </mxGeometry>
                </mxCell>
                <mxCell id="46" value="18" style="edgeLabel;html=1;align=center;verticalAlign=middle;resizable=0;points=[];fontSize=8;" parent="40" vertex="1" connectable="0">
                    <mxGeometry x="-0.8256" relative="1" as="geometry">
                        <mxPoint as="offset"/>
                    </mxGeometry>
                </mxCell>
                <mxCell id="60" value="2" style="edgeLabel;html=1;align=center;verticalAlign=middle;resizable=0;points=[];fontSize=8;" parent="40" vertex="1" connectable="0">
                    <mxGeometry x="0.8841" relative="1" as="geometry">
                        <mxPoint as="offset"/>
                    </mxGeometry>
                </mxCell>
                <mxCell id="42" style="edgeStyle=orthogonalEdgeStyle;rounded=0;orthogonalLoop=1;jettySize=auto;html=1;entryX=0.001;entryY=0.313;entryDx=0;entryDy=0;entryPerimeter=0;startArrow=oval;startFill=1;endArrow=oval;endFill=1;exitX=0.21;exitY=1;exitDx=0;exitDy=0;exitPerimeter=0;fillColor=#fa6800;strokeColor=#C73500;dashed=1;" parent="1" source="2" target="4" edge="1">
                    <mxGeometry relative="1" as="geometry">
                        <Array as="points">
                            <mxPoint x="275" y="334"/>
                            <mxPoint x="275" y="255"/>
                        </Array>
                    </mxGeometry>
                </mxCell>
                <mxCell id="50" value="23" style="edgeLabel;html=1;align=center;verticalAlign=middle;resizable=0;points=[];fontSize=8;" parent="42" vertex="1" connectable="0">
                    <mxGeometry x="-0.8116" relative="1" as="geometry">
                        <mxPoint x="-3" as="offset"/>
                    </mxGeometry>
                </mxCell>
                <mxCell id="61" value="3" style="edgeLabel;html=1;align=center;verticalAlign=middle;resizable=0;points=[];fontSize=8;" parent="42" vertex="1" connectable="0">
                    <mxGeometry x="0.8989" relative="1" as="geometry">
                        <mxPoint x="-1" as="offset"/>
                    </mxGeometry>
                </mxCell>
                <mxCell id="43" style="edgeStyle=orthogonalEdgeStyle;rounded=0;orthogonalLoop=1;jettySize=auto;html=1;entryX=0.001;entryY=0.439;entryDx=0;entryDy=0;startArrow=oval;startFill=1;endArrow=oval;endFill=1;exitX=0.383;exitY=1;exitDx=0;exitDy=0;exitPerimeter=0;fillColor=#0050ef;strokeColor=#001DBC;entryPerimeter=0;" parent="1" source="2" target="4" edge="1">
                    <mxGeometry relative="1" as="geometry">
                        <Array as="points">
                            <mxPoint x="285" y="305"/>
                            <mxPoint x="285" y="265"/>
                            <mxPoint x="350" y="265"/>
                        </Array>
                    </mxGeometry>
                </mxCell>
                <mxCell id="51" value="19" style="edgeLabel;html=1;align=center;verticalAlign=middle;resizable=0;points=[];fontSize=8;" parent="43" vertex="1" connectable="0">
                    <mxGeometry x="-0.8114" y="2" relative="1" as="geometry">
                        <mxPoint x="-1" y="1" as="offset"/>
                    </mxGeometry>
                </mxCell>
                <mxCell id="62" value="4" style="edgeLabel;html=1;align=center;verticalAlign=middle;resizable=0;points=[];fontSize=8;" parent="43" vertex="1" connectable="0">
                    <mxGeometry x="0.8862" relative="1" as="geometry">
                        <mxPoint x="-1" as="offset"/>
                    </mxGeometry>
                </mxCell>
                <mxCell id="44" style="edgeStyle=orthogonalEdgeStyle;rounded=0;orthogonalLoop=1;jettySize=auto;html=1;entryX=0.003;entryY=0.689;entryDx=0;entryDy=0;startArrow=oval;startFill=1;endArrow=oval;endFill=1;exitX=0.265;exitY=1.006;exitDx=0;exitDy=0;exitPerimeter=0;fillColor=#fa6800;strokeColor=#C73500;entryPerimeter=0;" parent="1" source="2" target="4" edge="1">
                    <mxGeometry relative="1" as="geometry">
                        <Array as="points">
                            <mxPoint x="305" y="325"/>
                            <mxPoint x="305" y="285"/>
                        </Array>
                    </mxGeometry>
                </mxCell>
                <mxCell id="52" value="22" style="edgeLabel;html=1;align=center;verticalAlign=middle;resizable=0;points=[];fontSize=8;" parent="44" vertex="1" connectable="0">
                    <mxGeometry x="-0.8173" y="1" relative="1" as="geometry">
                        <mxPoint as="offset"/>
                    </mxGeometry>
                </mxCell>
                <mxCell id="64" value="6" style="edgeLabel;html=1;align=center;verticalAlign=middle;resizable=0;points=[];fontSize=8;" parent="44" vertex="1" connectable="0">
                    <mxGeometry x="0.9032" y="1" relative="1" as="geometry">
                        <mxPoint x="-3" as="offset"/>
                    </mxGeometry>
                </mxCell>
                <mxCell id="53" style="edgeStyle=orthogonalEdgeStyle;rounded=0;orthogonalLoop=1;jettySize=auto;html=1;entryX=-0.001;entryY=0.562;entryDx=0;entryDy=0;entryPerimeter=0;dashed=1;fontSize=8;startArrow=oval;startFill=1;endArrow=oval;endFill=1;exitX=0.971;exitY=0.998;exitDx=0;exitDy=0;exitPerimeter=0;fillColor=#0050ef;strokeColor=#001DBC;" parent="1" source="2" target="4" edge="1">
                    <mxGeometry relative="1" as="geometry">
                        <Array as="points">
                            <mxPoint x="295" y="205"/>
                            <mxPoint x="295" y="275"/>
                        </Array>
                    </mxGeometry>
                </mxCell>
                <mxCell id="55" value="GND" style="edgeLabel;html=1;align=center;verticalAlign=middle;resizable=0;points=[];fontSize=8;" parent="53" vertex="1" connectable="0">
                    <mxGeometry x="-0.8526" relative="1" as="geometry">
                        <mxPoint as="offset"/>
                    </mxGeometry>
                </mxCell>
                <mxCell id="63" value="5" style="edgeLabel;html=1;align=center;verticalAlign=middle;resizable=0;points=[];fontSize=8;" parent="53" vertex="1" connectable="0">
                    <mxGeometry x="0.894" relative="1" as="geometry">
                        <mxPoint as="offset"/>
                    </mxGeometry>
                </mxCell>
                <mxCell id="54" style="edgeStyle=orthogonalEdgeStyle;rounded=0;orthogonalLoop=1;jettySize=auto;html=1;entryX=-0.005;entryY=0.81;entryDx=0;entryDy=0;entryPerimeter=0;dashed=1;fontSize=8;startArrow=oval;startFill=1;endArrow=oval;endFill=1;exitX=0.915;exitY=0.998;exitDx=0;exitDy=0;exitPerimeter=0;fillColor=#a0522d;strokeColor=#6D1F00;" parent="1" source="2" target="4" edge="1">
                    <mxGeometry relative="1" as="geometry">
                        <Array as="points">
                            <mxPoint x="315" y="215"/>
                            <mxPoint x="315" y="295"/>
                        </Array>
                    </mxGeometry>
                </mxCell>
                <mxCell id="56" value="3.3V" style="edgeLabel;html=1;align=center;verticalAlign=middle;resizable=0;points=[];fontSize=8;" parent="54" vertex="1" connectable="0">
                    <mxGeometry x="-0.8685" relative="1" as="geometry">
                        <mxPoint x="2" as="offset"/>
                    </mxGeometry>
                </mxCell>
                <mxCell id="65" value="7" style="edgeLabel;html=1;align=center;verticalAlign=middle;resizable=0;points=[];fontSize=8;" parent="54" vertex="1" connectable="0">
                    <mxGeometry x="0.9102" relative="1" as="geometry">
                        <mxPoint x="-2" as="offset"/>
                    </mxGeometry>
                </mxCell>
                <mxCell id="57" style="edgeStyle=orthogonalEdgeStyle;rounded=0;orthogonalLoop=1;jettySize=auto;html=1;entryX=-0.001;entryY=0.933;entryDx=0;entryDy=0;entryPerimeter=0;fontSize=8;startArrow=oval;startFill=1;endArrow=oval;endFill=1;fillColor=#a0522d;strokeColor=#6D1F00;exitX=0.849;exitY=0.999;exitDx=0;exitDy=0;exitPerimeter=0;" parent="1" source="2" target="4" edge="1">
                    <mxGeometry relative="1" as="geometry">
                        <mxPoint x="160" y="224" as="sourcePoint"/>
                        <Array as="points">
                            <mxPoint x="325" y="226"/>
                            <mxPoint x="325" y="305"/>
                        </Array>
                    </mxGeometry>
                </mxCell>
                <mxCell id="58" value="6" style="edgeLabel;html=1;align=center;verticalAlign=middle;resizable=0;points=[];fontSize=8;" parent="57" vertex="1" connectable="0">
                    <mxGeometry x="-0.8894" relative="1" as="geometry">
                        <mxPoint x="3" as="offset"/>
                    </mxGeometry>
                </mxCell>
                <mxCell id="66" value="8" style="edgeLabel;html=1;align=center;verticalAlign=middle;resizable=0;points=[];fontSize=8;" parent="57" vertex="1" connectable="0">
                    <mxGeometry x="0.9319" relative="1" as="geometry">
                        <mxPoint x="-5" as="offset"/>
                    </mxGeometry>
                </mxCell>
                <mxCell id="81" style="edgeStyle=orthogonalEdgeStyle;rounded=0;orthogonalLoop=1;jettySize=auto;html=1;fontSize=12;startArrow=oval;startFill=1;endArrow=none;endFill=0;exitX=0.735;exitY=1;exitDx=0;exitDy=0;exitPerimeter=0;entryX=0;entryY=0.5;entryDx=0;entryDy=0;entryPerimeter=0;fillColor=#e51400;strokeColor=#FF0000;" parent="1" source="2" target="73" edge="1">
                    <mxGeometry relative="1" as="geometry">
                        <mxPoint x="200" y="427" as="targetPoint"/>
                    </mxGeometry>
                </mxCell>
                <mxCell id="82" value="8" style="edgeLabel;html=1;align=center;verticalAlign=middle;resizable=0;points=[];fontSize=8;" parent="81" vertex="1" connectable="0">
                    <mxGeometry x="-0.8469" y="-2" relative="1" as="geometry">
                        <mxPoint x="-2" y="-2" as="offset"/>
                    </mxGeometry>
                </mxCell>
                <mxCell id="91" style="edgeStyle=orthogonalEdgeStyle;rounded=0;orthogonalLoop=1;jettySize=auto;html=1;entryX=0;entryY=0.5;entryDx=0;entryDy=0;entryPerimeter=0;fontSize=8;startArrow=oval;startFill=1;endArrow=none;endFill=0;exitX=0.794;exitY=0.991;exitDx=0;exitDy=0;exitPerimeter=0;fillColor=#e51400;strokeColor=#FF0000;" parent="1" source="2" target="89" edge="1">
                    <mxGeometry relative="1" as="geometry">
                        <mxPoint x="160" y="235" as="sourcePoint"/>
                    </mxGeometry>
                </mxCell>
                <mxCell id="92" value="7" style="edgeLabel;html=1;align=center;verticalAlign=middle;resizable=0;points=[];fontSize=8;" parent="91" vertex="1" connectable="0">
                    <mxGeometry x="-0.7998" relative="1" as="geometry">
                        <mxPoint x="1" as="offset"/>
                    </mxGeometry>
                </mxCell>
                <mxCell id="93" style="edgeStyle=orthogonalEdgeStyle;rounded=0;orthogonalLoop=1;jettySize=auto;html=1;entryX=0;entryY=0.5;entryDx=0;entryDy=0;entryPerimeter=0;fontSize=8;startArrow=oval;startFill=1;endArrow=none;endFill=0;exitX=0.914;exitY=-0.001;exitDx=0;exitDy=0;exitPerimeter=0;fillColor=#1ba1e2;strokeColor=#006EAF;" parent="1" source="2" target="86" edge="1">
                    <mxGeometry relative="1" as="geometry">
                        <Array as="points">
                            <mxPoint x="30" y="215"/>
                            <mxPoint x="30" y="140"/>
                        </Array>
                    </mxGeometry>
                </mxCell>
                <mxCell id="94" value="GND" style="edgeLabel;html=1;align=center;verticalAlign=middle;resizable=0;points=[];fontSize=8;" parent="93" vertex="1" connectable="0">
                    <mxGeometry x="-0.8657" y="1" relative="1" as="geometry">
                        <mxPoint x="-4" y="-1" as="offset"/>
                    </mxGeometry>
                </mxCell>
                <mxCell id="101" style="edgeStyle=orthogonalEdgeStyle;rounded=0;orthogonalLoop=1;jettySize=auto;html=1;fontSize=8;startArrow=oval;startFill=1;endArrow=none;endFill=0;strokeColor=#6F0000;exitX=0.834;exitY=0.004;exitDx=0;exitDy=0;exitPerimeter=0;fillColor=#a20025;" parent="1" edge="1">
                    <mxGeometry relative="1" as="geometry">
                        <mxPoint x="320" y="401" as="targetPoint"/>
                        <mxPoint x="70.36000000000001" y="229.22000000000003" as="sourcePoint"/>
                        <Array as="points">
                            <mxPoint x="40" y="229"/>
                            <mxPoint x="40" y="401"/>
                        </Array>
                    </mxGeometry>
                </mxCell>
                <mxCell id="102" value="VIN" style="edgeLabel;html=1;align=center;verticalAlign=middle;resizable=0;points=[];fontSize=8;" parent="101" vertex="1" connectable="0">
                    <mxGeometry x="-0.907" y="1" relative="1" as="geometry">
                        <mxPoint x="7" as="offset"/>
                    </mxGeometry>
                </mxCell>
                <mxCell id="2" value="ESP32" style="rounded=0;whiteSpace=wrap;html=1;rotation=-90;" parent="1" vertex="1">
                    <mxGeometry x="30" y="240" width="170" height="90" as="geometry"/>
                </mxCell>
                <mxCell id="6" style="rounded=0;orthogonalLoop=1;jettySize=auto;html=1;entryX=0.997;entryY=0.06;entryDx=0;entryDy=0;edgeStyle=elbowEdgeStyle;exitX=-0.001;exitY=0.13;exitDx=0;exitDy=0;endArrow=oval;endFill=1;entryPerimeter=0;startArrow=oval;startFill=1;exitPerimeter=0;fillColor=#008a00;strokeColor=#005700;jumpStyle=none;jumpSize=10;dashed=1;" parent="1" source="3" target="4" edge="1">
                    <mxGeometry relative="1" as="geometry">
                        <Array as="points">
                            <mxPoint x="497" y="150"/>
                            <mxPoint x="491" y="190"/>
                            <mxPoint x="485" y="200"/>
                        </Array>
                    </mxGeometry>
                </mxCell>
                <mxCell id="15" value="B. Verde" style="edgeLabel;html=1;align=center;verticalAlign=middle;resizable=0;points=[];fontSize=6;" parent="6" vertex="1" connectable="0">
                    <mxGeometry x="0.6063" y="1" relative="1" as="geometry">
                        <mxPoint x="-14" y="-2" as="offset"/>
                    </mxGeometry>
                </mxCell>
                <mxCell id="23" value="SDA" style="edgeLabel;html=1;align=center;verticalAlign=middle;resizable=0;points=[];fontSize=6;" parent="6" vertex="1" connectable="0">
                    <mxGeometry x="-0.5807" relative="1" as="geometry">
                        <mxPoint y="-21" as="offset"/>
                    </mxGeometry>
                </mxCell>
                <mxCell id="7" style="edgeStyle=elbowEdgeStyle;rounded=0;orthogonalLoop=1;jettySize=auto;html=1;entryX=0.997;entryY=0.185;entryDx=0;entryDy=0;exitX=0;exitY=0.25;exitDx=0;exitDy=0;endArrow=oval;endFill=1;startArrow=oval;startFill=1;entryPerimeter=0;fillColor=#008a00;strokeColor=#005700;" parent="1" source="3" target="4" edge="1">
                    <mxGeometry relative="1" as="geometry">
                        <mxPoint x="530" y="200" as="targetPoint"/>
                        <Array as="points">
                            <mxPoint x="508" y="150"/>
                            <mxPoint x="500" y="150"/>
                            <mxPoint x="490" y="180"/>
                        </Array>
                    </mxGeometry>
                </mxCell>
                <mxCell id="16" value="Verde" style="edgeLabel;html=1;align=center;verticalAlign=middle;resizable=0;points=[];fontSize=6;" parent="7" vertex="1" connectable="0">
                    <mxGeometry x="0.6381" relative="1" as="geometry">
                        <mxPoint x="-19" as="offset"/>
                    </mxGeometry>
                </mxCell>
                <mxCell id="24" value="SCK" style="edgeLabel;html=1;align=center;verticalAlign=middle;resizable=0;points=[];fontSize=6;" parent="7" vertex="1" connectable="0">
                    <mxGeometry x="-0.5349" relative="1" as="geometry">
                        <mxPoint y="-19" as="offset"/>
                    </mxGeometry>
                </mxCell>
                <mxCell id="9" style="edgeStyle=elbowEdgeStyle;rounded=0;orthogonalLoop=1;jettySize=auto;html=1;entryX=0.996;entryY=0.309;entryDx=0;entryDy=0;entryPerimeter=0;startArrow=oval;startFill=1;endArrow=oval;endFill=1;exitX=-0.001;exitY=0.388;exitDx=0;exitDy=0;exitPerimeter=0;fillColor=#fa6800;strokeColor=#C73500;dashed=1;" parent="1" source="3" target="4" edge="1">
                    <mxGeometry relative="1" as="geometry">
                        <Array as="points">
                            <mxPoint x="520" y="150"/>
                            <mxPoint x="510" y="135"/>
                            <mxPoint x="510" y="190"/>
                        </Array>
                    </mxGeometry>
                </mxCell>
                <mxCell id="17" value="B. Laranja" style="edgeLabel;html=1;align=center;verticalAlign=middle;resizable=0;points=[];fontSize=6;" parent="9" vertex="1" connectable="0">
                    <mxGeometry x="0.6512" relative="1" as="geometry">
                        <mxPoint x="-15" as="offset"/>
                    </mxGeometry>
                </mxCell>
                <mxCell id="25" value="MOSI" style="edgeLabel;html=1;align=center;verticalAlign=middle;resizable=0;points=[];fontSize=6;" parent="9" vertex="1" connectable="0">
                    <mxGeometry x="-0.4614" relative="1" as="geometry">
                        <mxPoint y="-42" as="offset"/>
                    </mxGeometry>
                </mxCell>
                <mxCell id="10" style="edgeStyle=elbowEdgeStyle;rounded=0;orthogonalLoop=1;jettySize=auto;html=1;entryX=0.996;entryY=0.432;entryDx=0;entryDy=0;entryPerimeter=0;startArrow=oval;startFill=1;endArrow=oval;endFill=1;exitX=0;exitY=0.5;exitDx=0;exitDy=0;fillColor=#0050ef;strokeColor=#001DBC;" parent="1" source="3" target="4" edge="1">
                    <mxGeometry relative="1" as="geometry">
                        <Array as="points">
                            <mxPoint x="530" y="150"/>
                            <mxPoint x="519" y="200"/>
                        </Array>
                    </mxGeometry>
                </mxCell>
                <mxCell id="18" value="Azul" style="edgeLabel;html=1;align=center;verticalAlign=middle;resizable=0;points=[];fontSize=6;" parent="10" vertex="1" connectable="0">
                    <mxGeometry x="0.5607" y="1" relative="1" as="geometry">
                        <mxPoint x="-37" y="-2" as="offset"/>
                    </mxGeometry>
                </mxCell>
                <mxCell id="26" value="MISO" style="edgeLabel;html=1;align=center;verticalAlign=middle;resizable=0;points=[];fontSize=6;" parent="10" vertex="1" connectable="0">
                    <mxGeometry x="-0.3904" relative="1" as="geometry">
                        <mxPoint y="-46" as="offset"/>
                    </mxGeometry>
                </mxCell>
                <mxCell id="12" style="edgeStyle=elbowEdgeStyle;rounded=0;orthogonalLoop=1;jettySize=auto;html=1;startArrow=oval;startFill=1;endArrow=oval;endFill=1;exitX=0.002;exitY=0.623;exitDx=0;exitDy=0;exitPerimeter=0;fillColor=#0050ef;strokeColor=#001DBC;dashed=1;entryX=0.999;entryY=0.556;entryDx=0;entryDy=0;entryPerimeter=0;" parent="1" source="3" target="4" edge="1">
                    <mxGeometry relative="1" as="geometry">
                        <mxPoint x="430" y="278" as="targetPoint"/>
                        <Array as="points">
                            <mxPoint x="541" y="150"/>
                            <mxPoint x="527" y="210"/>
                        </Array>
                    </mxGeometry>
                </mxCell>
                <mxCell id="19" value="B. Azul" style="edgeLabel;html=1;align=center;verticalAlign=middle;resizable=0;points=[];fontSize=6;" parent="12" vertex="1" connectable="0">
                    <mxGeometry x="0.6844" y="1" relative="1" as="geometry">
                        <mxPoint x="-22" y="-1" as="offset"/>
                    </mxGeometry>
                </mxCell>
                <mxCell id="27" value="GND" style="edgeLabel;html=1;align=center;verticalAlign=middle;resizable=0;points=[];fontSize=6;" parent="12" vertex="1" connectable="0">
                    <mxGeometry x="-0.7756" relative="1" as="geometry">
                        <mxPoint y="-13" as="offset"/>
                    </mxGeometry>
                </mxCell>
                <mxCell id="13" style="edgeStyle=elbowEdgeStyle;rounded=0;orthogonalLoop=1;jettySize=auto;html=1;startArrow=oval;startFill=1;endArrow=oval;endFill=1;exitX=0;exitY=0.75;exitDx=0;exitDy=0;entryX=0.997;entryY=0.682;entryDx=0;entryDy=0;entryPerimeter=0;fillColor=#fa6800;strokeColor=#C73500;" parent="1" source="3" target="4" edge="1">
                    <mxGeometry relative="1" as="geometry">
                        <mxPoint x="430" y="287" as="targetPoint"/>
                        <Array as="points">
                            <mxPoint x="553" y="180"/>
                            <mxPoint x="538" y="160"/>
                            <mxPoint x="538" y="210"/>
                        </Array>
                    </mxGeometry>
                </mxCell>
                <mxCell id="20" value="Laranja" style="edgeLabel;html=1;align=center;verticalAlign=middle;resizable=0;points=[];fontSize=6;" parent="13" vertex="1" connectable="0">
                    <mxGeometry x="0.6522" relative="1" as="geometry">
                        <mxPoint x="-29" as="offset"/>
                    </mxGeometry>
                </mxCell>
                <mxCell id="28" value="RST" style="edgeLabel;html=1;align=center;verticalAlign=middle;resizable=0;points=[];fontSize=6;" parent="13" vertex="1" connectable="0">
                    <mxGeometry x="-0.8045" y="-1" relative="1" as="geometry">
                        <mxPoint as="offset"/>
                    </mxGeometry>
                </mxCell>
                <mxCell id="14" style="edgeStyle=elbowEdgeStyle;rounded=0;orthogonalLoop=1;jettySize=auto;html=1;entryX=0.999;entryY=0.809;entryDx=0;entryDy=0;entryPerimeter=0;startArrow=oval;startFill=1;endArrow=oval;endFill=1;exitX=0;exitY=0.891;exitDx=0;exitDy=0;exitPerimeter=0;fillColor=#a0522d;strokeColor=#6D1F00;dashed=1;" parent="1" source="3" target="4" edge="1">
                    <mxGeometry relative="1" as="geometry">
                        <Array as="points">
                            <mxPoint x="565" y="210"/>
                        </Array>
                    </mxGeometry>
                </mxCell>
                <mxCell id="22" value="B. Marrom" style="edgeLabel;html=1;align=center;verticalAlign=middle;resizable=0;points=[];fontSize=6;" parent="14" vertex="1" connectable="0">
                    <mxGeometry x="0.7374" y="-1" relative="1" as="geometry">
                        <mxPoint x="-17" as="offset"/>
                    </mxGeometry>
                </mxCell>
                <mxCell id="29" value="3.3V" style="edgeLabel;html=1;align=center;verticalAlign=middle;resizable=0;points=[];fontSize=6;" parent="14" vertex="1" connectable="0">
                    <mxGeometry x="-0.8037" relative="1" as="geometry">
                        <mxPoint y="-14" as="offset"/>
                    </mxGeometry>
                </mxCell>
                <mxCell id="3" value="RFID" style="rounded=0;whiteSpace=wrap;html=1;rotation=-90;" parent="1" vertex="1">
                    <mxGeometry x="470" y="30" width="120" height="90" as="geometry"/>
                </mxCell>
                <mxCell id="37" style="edgeStyle=elbowEdgeStyle;rounded=0;jumpStyle=none;jumpSize=10;orthogonalLoop=1;jettySize=auto;html=1;fontSize=6;startArrow=oval;startFill=1;endArrow=none;endFill=0;fillColor=#a0522d;strokeColor=#6D1F00;exitX=0.999;exitY=0.934;exitDx=0;exitDy=0;exitPerimeter=0;entryX=0;entryY=0.5;entryDx=0;entryDy=0;entryPerimeter=0;" parent="1" source="4" target="71" edge="1">
                    <mxGeometry relative="1" as="geometry">
                        <Array as="points">
                            <mxPoint x="638" y="310"/>
                        </Array>
                        <mxPoint x="440" y="308" as="sourcePoint"/>
                        <mxPoint x="660" y="305" as="targetPoint"/>
                    </mxGeometry>
                </mxCell>
                <mxCell id="38" value="Marrom" style="edgeLabel;html=1;align=center;verticalAlign=middle;resizable=0;points=[];fontSize=6;" parent="37" vertex="1" connectable="0">
                    <mxGeometry x="-0.8857" y="-1" relative="1" as="geometry">
                        <mxPoint x="3" y="-1" as="offset"/>
                    </mxGeometry>
                </mxCell>
                <mxCell id="4" value="RJ45" style="whiteSpace=wrap;html=1;aspect=fixed;" parent="1" vertex="1">
                    <mxGeometry x="350" y="230" width="80" height="80" as="geometry"/>
                </mxCell>
                <mxCell id="32" style="edgeStyle=elbowEdgeStyle;rounded=0;orthogonalLoop=1;jettySize=auto;html=1;fontSize=6;startArrow=none;startFill=0;endArrow=oval;endFill=1;fillColor=#0050ef;strokeColor=#001DBC;dashed=1;" parent="1" source="30" edge="1">
                    <mxGeometry relative="1" as="geometry">
                        <mxPoint x="540" y="200" as="targetPoint"/>
                        <Array as="points">
                            <mxPoint x="638" y="210"/>
                        </Array>
                    </mxGeometry>
                </mxCell>
                <mxCell id="80" value="" style="group;rotation=90;fontStyle=4" parent="1" vertex="1" connectable="0">
                    <mxGeometry x="150" y="400" width="120" height="150" as="geometry"/>
                </mxCell>
                <mxCell id="79" value="" style="rounded=0;whiteSpace=wrap;html=1;fontSize=12;fillColor=none;dashed=1;rotation=90;" parent="80" vertex="1">
                    <mxGeometry x="-41" y="41" width="120.00000000000001" height="67.5" as="geometry"/>
                </mxCell>
                <mxCell id="73" value="" style="verticalLabelPosition=bottom;shadow=0;dashed=0;align=center;html=1;verticalAlign=top;shape=mxgraph.electrical.transistors.npn_transistor_5;fontSize=8;rotation=90;strokeColor=#6F0000;fillColor=#a20025;fontColor=#ffffff;" parent="80" vertex="1">
                    <mxGeometry x="78" y="6" width="38.4" height="75" as="geometry"/>
                </mxCell>
                <mxCell id="74" value="" style="pointerEvents=1;verticalLabelPosition=bottom;shadow=0;dashed=0;align=center;html=1;verticalAlign=top;shape=mxgraph.electrical.electro-mechanical.relay;fontSize=8;rotation=90;" parent="80" vertex="1">
                    <mxGeometry x="-11" y="44" width="60.00000000000001" height="37.5" as="geometry"/>
                </mxCell>
                <mxCell id="75" style="edgeStyle=orthogonalEdgeStyle;rounded=0;orthogonalLoop=1;jettySize=auto;html=1;entryX=0.5;entryY=0;entryDx=0;entryDy=0;entryPerimeter=0;fontSize=8;startArrow=none;startFill=0;endArrow=none;endFill=0;exitX=1;exitY=1;exitDx=0;exitDy=0;exitPerimeter=0;strokeColor=#6F0000;fillColor=#a20025;" parent="80" source="73" target="74" edge="1">
                    <mxGeometry relative="1" as="geometry"/>
                </mxCell>
                <mxCell id="76" value="Relé" style="text;html=1;strokeColor=none;fillColor=none;align=center;verticalAlign=middle;whiteSpace=wrap;rounded=0;fontSize=12;rotation=0;" parent="80" vertex="1">
                    <mxGeometry x="-11" y="14" width="24" height="15" as="geometry"/>
                </mxCell>
                <mxCell id="77" value="" style="pointerEvents=1;verticalLabelPosition=bottom;shadow=0;dashed=0;align=center;html=1;verticalAlign=top;shape=mxgraph.electrical.electro-mechanical.simple_switch;fontSize=12;rotation=180;fillColor=#fa6800;strokeColor=#C73500;fontColor=#000000;" parent="80" vertex="1">
                    <mxGeometry x="-3" y="108" width="45" height="14.250000000000002" as="geometry"/>
                </mxCell>
                <mxCell id="83" value="" style="group" parent="1" vertex="1" connectable="0">
                    <mxGeometry x="623" y="207" width="79" height="90.5" as="geometry"/>
                </mxCell>
                <mxCell id="69" value="" style="group" parent="83" vertex="1" connectable="0">
                    <mxGeometry width="79" height="36" as="geometry"/>
                </mxCell>
                <mxCell id="30" value="" style="pointerEvents=1;verticalLabelPosition=bottom;shadow=0;dashed=0;align=center;html=1;verticalAlign=top;shape=mxgraph.electrical.miscellaneous.light_bulb;fontSize=6;rotation=90;fillColor=#a20025;strokeColor=#6F0000;fontColor=#ffffff;" parent="69" vertex="1">
                    <mxGeometry x="-3" y="3" width="36" height="30" as="geometry"/>
                </mxCell>
                <mxCell id="34" value="LED Vermelho" style="text;html=1;strokeColor=none;fillColor=none;align=center;verticalAlign=middle;whiteSpace=wrap;rounded=0;fontSize=6;" parent="69" vertex="1">
                    <mxGeometry x="25" y="8" width="54" height="20" as="geometry"/>
                </mxCell>
                <mxCell id="72" style="edgeStyle=orthogonalEdgeStyle;rounded=0;orthogonalLoop=1;jettySize=auto;html=1;entryX=1;entryY=0.5;entryDx=0;entryDy=0;entryPerimeter=0;fontSize=8;startArrow=none;startFill=0;endArrow=none;endFill=0;fillColor=#a0522d;strokeColor=#6D1F00;" parent="83" source="71" target="30" edge="1">
                    <mxGeometry relative="1" as="geometry"/>
                </mxCell>
                <mxCell id="71" value="" style="pointerEvents=1;verticalLabelPosition=bottom;shadow=0;dashed=0;align=center;html=1;verticalAlign=top;shape=mxgraph.electrical.resistors.resistor_2;fontSize=8;rotation=-90;fillColor=#a0522d;strokeColor=#6D1F00;fontColor=#ffffff;" parent="83" vertex="1">
                    <mxGeometry y="73" width="30" height="5" as="geometry"/>
                </mxCell>
                <mxCell id="84" value="" style="group;rotation=-90;" parent="1" vertex="1" connectable="0">
                    <mxGeometry x="120" y="70" width="79" height="90.5" as="geometry"/>
                </mxCell>
                <mxCell id="85" value="" style="group;rotation=-90;" parent="84" vertex="1" connectable="0">
                    <mxGeometry x="-27" y="27" width="79" height="36" as="geometry"/>
                </mxCell>
                <mxCell id="86" value="" style="pointerEvents=1;verticalLabelPosition=bottom;shadow=0;dashed=0;align=center;html=1;verticalAlign=top;shape=mxgraph.electrical.miscellaneous.light_bulb;fontSize=6;rotation=0;fillColor=#008a00;strokeColor=#005700;fontColor=#ffffff;" parent="85" vertex="1">
                    <mxGeometry x="22" y="28" width="36" height="30" as="geometry"/>
                </mxCell>
                <mxCell id="87" value="LED Verde" style="text;html=1;strokeColor=none;fillColor=none;align=center;verticalAlign=middle;whiteSpace=wrap;rounded=0;fontSize=6;rotation=0;" parent="85" vertex="1">
                    <mxGeometry x="13" y="-4" width="54" height="20" as="geometry"/>
                </mxCell>
                <mxCell id="88" style="edgeStyle=orthogonalEdgeStyle;rounded=0;orthogonalLoop=1;jettySize=auto;html=1;entryX=1;entryY=0.5;entryDx=0;entryDy=0;entryPerimeter=0;fontSize=8;startArrow=none;startFill=0;endArrow=none;endFill=0;fillColor=#e51400;strokeColor=#FF0000;" parent="84" source="89" target="86" edge="1">
                    <mxGeometry relative="1" as="geometry"/>
                </mxCell>
                <mxCell id="89" value="" style="pointerEvents=1;verticalLabelPosition=bottom;shadow=0;dashed=0;align=center;html=1;verticalAlign=top;shape=mxgraph.electrical.resistors.resistor_2;fontSize=8;rotation=-180;fillColor=#e51400;fontColor=#ffffff;strokeColor=#FF0000;" parent="84" vertex="1">
                    <mxGeometry x="55" y="67" width="30" height="5" as="geometry"/>
                </mxCell>
                <mxCell id="95" style="edgeStyle=orthogonalEdgeStyle;rounded=0;orthogonalLoop=1;jettySize=auto;html=1;fontSize=8;startArrow=none;startFill=0;endArrow=none;endFill=0;fillColor=#1ba1e2;strokeColor=#006EAF;" parent="1" source="74" edge="1">
                    <mxGeometry relative="1" as="geometry">
                        <mxPoint x="30" y="210" as="targetPoint"/>
                    </mxGeometry>
                </mxCell>
                <mxCell id="99" style="edgeStyle=orthogonalEdgeStyle;rounded=0;orthogonalLoop=1;jettySize=auto;html=1;fontSize=8;startArrow=none;startFill=0;endArrow=none;endFill=0;fillColor=#0050ef;strokeColor=#0050EF;" parent="1" source="96" edge="1">
                    <mxGeometry relative="1" as="geometry">
                        <mxPoint x="30" y="385" as="targetPoint"/>
                    </mxGeometry>
                </mxCell>
                <mxCell id="96" value="" style="ellipse;whiteSpace=wrap;html=1;aspect=fixed;fontSize=8;fillColor=#0050ef;fontColor=#ffffff;strokeColor=#0050EF;" parent="1" vertex="1">
                    <mxGeometry x="430" y="380" width="10" height="10" as="geometry"/>
                </mxCell>
                <mxCell id="98" style="edgeStyle=orthogonalEdgeStyle;rounded=0;orthogonalLoop=1;jettySize=auto;html=1;entryX=1;entryY=0;entryDx=0;entryDy=0;entryPerimeter=0;fontSize=8;startArrow=none;startFill=0;endArrow=none;endFill=0;strokeColor=#6F0000;fillColor=#a20025;exitX=1.038;exitY=0.9;exitDx=0;exitDy=0;exitPerimeter=0;" parent="1" source="118" target="73" edge="1">
                    <mxGeometry relative="1" as="geometry">
                        <Array as="points">
                            <mxPoint x="314" y="401"/>
                            <mxPoint x="314" y="463"/>
                            <mxPoint x="277" y="463"/>
                        </Array>
                    </mxGeometry>
                </mxCell>
                <mxCell id="97" value="" style="ellipse;whiteSpace=wrap;html=1;aspect=fixed;fontSize=8;strokeColor=#6F0000;fillColor=#a20025;fontColor=#ffffff;" parent="1" vertex="1">
                    <mxGeometry x="431" y="396" width="10" height="10" as="geometry"/>
                </mxCell>
                <mxCell id="103" value="GND" style="text;html=1;strokeColor=none;fillColor=none;align=center;verticalAlign=middle;whiteSpace=wrap;rounded=0;fontSize=8;" parent="1" vertex="1">
                    <mxGeometry x="433" y="375" width="40" height="20" as="geometry"/>
                </mxCell>
                <mxCell id="104" value="12V" style="text;html=1;strokeColor=none;fillColor=none;align=center;verticalAlign=middle;whiteSpace=wrap;rounded=0;fontSize=8;" parent="1" vertex="1">
                    <mxGeometry x="433" y="391" width="40" height="20" as="geometry"/>
                </mxCell>
                <mxCell id="108" value="Contato de acionamento da porta" style="text;html=1;strokeColor=none;fillColor=none;align=center;verticalAlign=middle;whiteSpace=wrap;rounded=0;fontSize=8;" parent="1" vertex="1">
                    <mxGeometry x="102.5" y="603" width="125" height="20" as="geometry"/>
                </mxCell>
                <mxCell id="109" value="" style="group;rotation=91;" parent="1" vertex="1" connectable="0">
                    <mxGeometry x="160" y="585" width="10" height="26" as="geometry"/>
                </mxCell>
                <mxCell id="106" value="" style="ellipse;whiteSpace=wrap;html=1;aspect=fixed;fontSize=8;strokeColor=#C73500;fillColor=#fa6800;fontColor=#000000;rotation=91;" parent="109" vertex="1">
                    <mxGeometry x="-8" y="8" width="10" height="10" as="geometry"/>
                </mxCell>
                <mxCell id="105" value="" style="ellipse;whiteSpace=wrap;html=1;aspect=fixed;fontSize=8;fillColor=#fa6800;fontColor=#000000;strokeColor=#C73500;rotation=91;" parent="1" vertex="1">
                    <mxGeometry x="170" y="593" width="10" height="10" as="geometry"/>
                </mxCell>
                <mxCell id="111" style="edgeStyle=orthogonalEdgeStyle;rounded=0;orthogonalLoop=1;jettySize=auto;html=1;entryX=0.5;entryY=1;entryDx=0;entryDy=0;fontSize=8;startArrow=oval;startFill=1;endArrow=none;endFill=0;strokeColor=#C73500;exitX=1;exitY=0.84;exitDx=0;exitDy=0;exitPerimeter=0;fillColor=#fa6800;" parent="1" source="77" target="106" edge="1">
                    <mxGeometry relative="1" as="geometry"/>
                </mxCell>
                <mxCell id="112" style="edgeStyle=orthogonalEdgeStyle;rounded=0;orthogonalLoop=1;jettySize=auto;html=1;entryX=0.5;entryY=0;entryDx=0;entryDy=0;fontSize=8;startArrow=oval;startFill=1;endArrow=none;endFill=0;strokeColor=#C73500;exitX=0;exitY=0.84;exitDx=0;exitDy=0;exitPerimeter=0;fillColor=#fa6800;" parent="1" source="77" target="105" edge="1">
                    <mxGeometry relative="1" as="geometry"/>
                </mxCell>
                <mxCell id="116" value="" style="rounded=0;whiteSpace=wrap;html=1;dashed=1;fontSize=8;fillColor=none;" parent="1" vertex="1">
                    <mxGeometry x="470" width="280" height="320" as="geometry"/>
                </mxCell>
                <mxCell id="117" value="Circuito de leitura de cartões" style="text;html=1;strokeColor=none;fillColor=none;align=center;verticalAlign=middle;whiteSpace=wrap;rounded=0;dashed=1;fontSize=8;rotation=0;" parent="1" vertex="1">
                    <mxGeometry x="620" y="10" width="110" height="20" as="geometry"/>
                </mxCell>
                <mxCell id="119" style="edgeStyle=orthogonalEdgeStyle;rounded=0;orthogonalLoop=1;jettySize=auto;html=1;entryX=0;entryY=0.5;entryDx=0;entryDy=0;fontSize=8;startArrow=none;startFill=0;endArrow=none;endFill=0;strokeColor=#6F0000;fillColor=#a20025;" parent="1" source="118" target="97" edge="1">
                    <mxGeometry relative="1" as="geometry"/>
                </mxCell>
                <mxCell id="118" value="" style="pointerEvents=1;verticalLabelPosition=bottom;shadow=0;dashed=0;align=center;html=1;verticalAlign=top;shape=mxgraph.electrical.electro-mechanical.break_contact;fontSize=8;strokeColor=#6F0000;fillColor=#a20025;fontColor=#ffffff;rotation=-180;" parent="1" vertex="1">
                    <mxGeometry x="377" y="400" width="34" height="4" as="geometry"/>
                </mxCell>
                <mxCell id="121" value="On/Off" style="text;html=1;strokeColor=none;fillColor=none;align=center;verticalAlign=middle;whiteSpace=wrap;rounded=0;dashed=1;fontSize=8;" parent="1" vertex="1">
                    <mxGeometry x="374" y="404" width="40" height="20" as="geometry"/>
                </mxCell>
                <mxCell id="123" value="mSD" style="rounded=0;whiteSpace=wrap;html=1;rotation=0;" vertex="1" parent="1">
                    <mxGeometry x="-280" y="150" width="80" height="90" as="geometry"/>
                </mxCell>
                <mxCell id="127" style="edgeStyle=orthogonalEdgeStyle;rounded=0;orthogonalLoop=1;jettySize=auto;html=1;startArrow=oval;startFill=1;endArrow=oval;endFill=1;strokeColor=#006EAF;exitX=0.124;exitY=0.004;exitDx=0;exitDy=0;exitPerimeter=0;" edge="1" parent="1" source="124">
                    <mxGeometry relative="1" as="geometry">
                        <mxPoint x="-270" y="260" as="targetPoint"/>
                    </mxGeometry>
                </mxCell>
                <mxCell id="130" style="edgeStyle=orthogonalEdgeStyle;rounded=0;orthogonalLoop=1;jettySize=auto;html=1;startArrow=oval;startFill=1;endArrow=oval;endFill=1;strokeColor=#FF0000;" edge="1" parent="1" source="124">
                    <mxGeometry relative="1" as="geometry">
                        <mxPoint x="-260" y="270" as="targetPoint"/>
                        <Array as="points">
                            <mxPoint x="-260" y="320"/>
                            <mxPoint x="-260" y="320"/>
                        </Array>
                    </mxGeometry>
                </mxCell>
                <mxCell id="135" style="edgeStyle=orthogonalEdgeStyle;rounded=0;orthogonalLoop=1;jettySize=auto;html=1;startArrow=oval;startFill=1;endArrow=oval;endFill=1;strokeColor=#C73500;fillColor=#fa6800;" edge="1" parent="1" source="124">
                    <mxGeometry relative="1" as="geometry">
                        <mxPoint x="-250" y="280" as="targetPoint"/>
                        <Array as="points">
                            <mxPoint x="-250" y="330"/>
                            <mxPoint x="-250" y="330"/>
                        </Array>
                    </mxGeometry>
                </mxCell>
                <mxCell id="136" style="edgeStyle=orthogonalEdgeStyle;rounded=0;orthogonalLoop=1;jettySize=auto;html=1;startArrow=oval;startFill=1;endArrow=oval;endFill=1;strokeColor=#BD7000;fillColor=#f0a30a;" edge="1" parent="1" source="124">
                    <mxGeometry relative="1" as="geometry">
                        <mxPoint x="-240" y="290" as="targetPoint"/>
                    </mxGeometry>
                </mxCell>
                <mxCell id="137" style="edgeStyle=orthogonalEdgeStyle;rounded=0;orthogonalLoop=1;jettySize=auto;html=1;startArrow=oval;startFill=1;endArrow=oval;endFill=1;strokeColor=#B09500;fillColor=#e3c800;" edge="1" parent="1" source="124">
                    <mxGeometry relative="1" as="geometry">
                        <mxPoint x="-230" y="300" as="targetPoint"/>
                        <Array as="points">
                            <mxPoint x="-230" y="340"/>
                            <mxPoint x="-230" y="340"/>
                        </Array>
                    </mxGeometry>
                </mxCell>
                <mxCell id="124" value="RTC" style="rounded=0;whiteSpace=wrap;html=1;rotation=0;" vertex="1" parent="1">
                    <mxGeometry x="-280" y="350" width="80" height="90" as="geometry"/>
                </mxCell>
            </root>
        </mxGraphModel>
    </diagram>
</mxfile>